<svg width="32" height="32" viewBox="0 0 32 32" fill="none" xmlns="http://www.w3.org/2000/svg">
<rect width="32" height="32" rx="2" fill="#FF9200"/>
<path d="M20.2308 15.504L21.7997 13.9351L18.0523 10.1877L16.4834 11.7566L12.3463 7.62952C11.5668 6.85006 10.2977 6.85006 9.51825 7.62952L7.61957 9.5282C6.84011 10.3077 6.84011 11.5768 7.61957 12.3562L11.7467 16.4834L7 21.2401V24.9875H10.7474L15.5041 20.2308L19.6312 24.3579C20.5806 25.3072 21.8597 24.9575 22.4593 24.3579L24.3579 22.4592C25.1374 21.6798 25.1374 20.4106 24.3579 19.6312L20.2308 15.504ZM13.1757 15.0644L9.03858 10.9372L10.9273 9.03854L12.1964 10.3077L11.0172 11.4968L12.4262 12.9059L13.6154 11.7167L15.0644 13.1657L13.1757 15.0644ZM21.0502 22.9489L16.9231 18.8217L18.8218 16.9231L20.2708 18.3721L19.0816 19.5612L20.4906 20.9703L21.6798 19.7811L22.9489 21.0502L21.0502 22.9489Z" fill="white"/>
<path d="M24.6977 11.0361C25.0874 10.6464 25.0874 10.0168 24.6977 9.62707L22.3593 7.28869C21.8897 6.81902 21.2401 6.99889 20.9503 7.28869L19.1216 9.11742L22.869 12.8648L24.6977 11.0361Z" fill="white"/>
</svg>
